<?xml version="1.0" encoding="utf-8"?>
<!-- Generator: Adobe Illustrator 21.1.0, SVG Export Plug-In . SVG Version: 6.00 Build 0)  -->
<svg version="1.1" id="Layer_1" xmlns="http://www.w3.org/2000/svg" xmlns:xlink="http://www.w3.org/1999/xlink" x="0px" y="0px"
	 viewBox="0 0 1280 1024" style="enable-background:new 0 0 1280 1024;" xml:space="preserve">
<style type="text/css">
	.st0{fill:url(#SVGID_1_);}
	.st1{fill:#F9FF00;}
</style>
<radialGradient id="SVGID_1_" cx="640" cy="512" r="579.5447" gradientUnits="userSpaceOnUse">
	<stop  offset="0" style="stop-color:#000000;stop-opacity:0"/>
	<stop  offset="1" style="stop-color:#000000;stop-opacity:0.85"/>
</radialGradient>
<rect class="st0" width="1280" height="1024"/>
<polygon class="st1" points="142.3,183.7 133.3,182.4 127.2,189.1 125.6,180.2 117.4,176.4 125.4,172.2 126.4,163.1 132.9,169.5 
	141.8,167.7 137.8,175.8 "/>
<polygon class="st1" points="212.9,329.9 211.3,326.8 207.8,326.3 210.3,323.8 209.7,320.4 212.8,322 215.9,320.3 215.3,323.8 
	217.8,326.2 214.4,326.7 "/>
<polygon class="st1" points="828.3,183.7 819.3,182.4 813.2,189.1 811.6,180.2 803.4,176.4 811.4,172.2 812.4,163.1 818.9,169.5 
	827.8,167.7 823.8,175.8 "/>
<polygon class="st1" points="1114.8,137.6 1108.3,136.7 1103.9,141.5 1102.8,135 1096.8,132.3 1102.6,129.3 1103.4,122.7 
	1108.1,127.3 1114.5,126 1111.6,131.9 "/>
<polygon class="st1" points="566.8,574.8 562.5,574.2 559.5,577.4 558.8,573.1 554.8,571.3 558.7,569.2 559.2,564.9 562.3,567.9 
	566.6,567 564.7,571 "/>
<polygon class="st1" points="156.2,434.3 147.2,435.4 143.1,443.5 139.2,435.3 130.3,433.8 136.9,427.6 135.5,418.7 143.4,423 
	151.5,418.9 149.8,427.8 "/>
<polygon class="st1" points="95.1,699.2 93.5,698.4 92,699.3 92.3,697.6 91,696.4 92.7,696.1 93.4,694.5 94.2,696 96,696.2 
	94.8,697.5 "/>
<polygon class="st1" points="1197.3,416.7 1188.3,415.4 1182.2,422.1 1180.6,413.2 1172.4,409.4 1180.4,405.2 1181.4,396.1 
	1187.9,402.5 1196.8,400.7 1192.8,408.8 "/>
<polygon class="st1" points="403.8,784.4 398.8,783.7 395.3,787.4 394.4,782.4 389.8,780.3 394.3,777.9 394.9,772.8 398.6,776.4 
	403.6,775.4 401.3,779.9 "/>
<polygon class="st1" points="75.3,678.7 66.3,677.4 60.2,684.1 58.6,675.2 50.4,671.4 58.4,667.2 59.4,658.1 65.9,664.5 74.8,662.7 
	70.8,670.8 "/>
<polygon class="st1" points="1170.3,726.9 1167.1,726.4 1164.9,728.8 1164.3,725.6 1161.3,724.2 1164.2,722.7 1164.6,719.4 
	1166.9,721.7 1170.1,721.1 1168.7,724 "/>
<polygon class="st1" points="233.5,565.7 230.7,560.8 225.1,560.4 228.9,556.2 227.6,550.8 232.7,553.1 237.5,550.2 236.9,555.7 
	241.1,559.4 235.6,560.5 "/>
<polygon class="st1" points="873.8,685.5 873,684.8 872,685 872.5,684 871.9,683 873,683.2 873.8,682.4 873.9,683.5 874.9,684 
	874,684.5 "/>
<polygon class="st1" points="1011.8,313.6 1008.9,313.1 1007,315.3 1006.5,312.4 1003.8,311.2 1006.4,309.8 1006.7,307 1008.8,309 
	1011.7,308.4 1010.4,311 "/>
<polygon class="st1" points="515.6,153 512.2,152.6 509.8,155.1 509.2,151.7 506,150.2 509.1,148.6 509.5,145.1 512,147.6 
	515.4,146.9 513.9,150 "/>
</svg>
